<?xml version="1.0" encoding="utf-8"?>
<!-- Generator: Adobe Illustrator 25.2.0, SVG Export Plug-In . SVG Version: 6.00 Build 0)  -->
<svg version="1.1" id="Layer_1" xmlns="http://www.w3.org/2000/svg" xmlns:xlink="http://www.w3.org/1999/xlink" x="0px" y="0px"
	 viewBox="0 0 800 800" style="enable-background:new 0 0 800 800;" xml:space="preserve">
<style type="text/css">
	.st0{fill-rule:evenodd;clip-rule:evenodd;fill:#FFFFFF;}
</style>
<path class="st0" d="M748.5,534.7c0,25.1-20.4,45.5-45.5,45.5H400c-25.1,0-45.5-20.4-45.5-45.5c0-25.1,20.4-45.5,45.5-45.5h303.1
	C728.2,489.2,748.5,509.6,748.5,534.7z"/>
<path class="st0" d="M62,202.5c16.1-19.3,44.7-21.9,64-5.8l16.8,14c36.7,30.6,67.9,56.6,89.5,80.5c22.9,25.4,40.9,54.6,40.9,92
	s-17.9,66.6-40.9,92c-21.6,23.9-52.8,49.9-89.5,80.5l-16.8,14c-19.3,16.1-48,13.5-64-5.8c-16.1-19.3-13.5-48,5.8-64L82,487.9
	c39.9-33.3,66-55.2,82.8-73.7c15.9-17.6,17.4-25.9,17.4-31.1c0-5.2-1.5-13.5-17.4-31.1c-16.7-18.5-42.8-40.4-82.8-73.7l-14.2-11.8
	C48.5,250.5,45.9,221.8,62,202.5z"/>
</svg>
