<?xml version="1.0" encoding="utf-8"?>
<!-- Generator: Adobe Illustrator 25.2.0, SVG Export Plug-In . SVG Version: 6.00 Build 0)  -->
<svg version="1.1" id="Layer_1" xmlns="http://www.w3.org/2000/svg" xmlns:xlink="http://www.w3.org/1999/xlink" x="0px" y="0px"
	 viewBox="0 0 777.1 520.8" style="enable-background:new 0 0 777.1 520.8;" xml:space="preserve">
<style type="text/css">
	.st0{fill:#3B4045;}
</style>
<path class="st0" d="M515.2,513.5c-12.8,0-21.3-4.3-29.9-12.8c-17.1-17.1-17.1-42.7,0-59.7l213.3-213.3c17.1-17.1,42.7-17.1,59.7,0
	s17.1,42.7,0,59.7L545.1,500.7C536.5,509.2,528,513.5,515.2,513.5z"/>
<path class="st0" d="M728.5,300.1c-12.8,0-21.3-4.3-29.9-12.8L485.3,74c-17.1-17.1-17.1-42.7,0-59.7s42.7-17.1,59.7,0l213.3,213.3
	c17.1,17.1,17.1,42.7,0,59.7C749.9,295.9,741.3,300.1,728.5,300.1z"/>
<path class="st0" d="M728.5,300.1H45.9c-25.6,0-42.7-17.1-42.7-42.7s17.1-42.7,42.7-42.7h682.7c25.6,0,42.7,17.1,42.7,42.7
	S754.1,300.1,728.5,300.1z"/>
</svg>
