<?xml version="1.0" encoding="utf-8"?>
<!-- Generator: Adobe Illustrator 25.2.0, SVG Export Plug-In . SVG Version: 6.00 Build 0)  -->
<svg version="1.1" xmlns="http://www.w3.org/2000/svg" xmlns:xlink="http://www.w3.org/1999/xlink" x="0px" y="0px"
	 viewBox="0 0 146.4 146.4" style="enable-background:new 0 0 146.4 146.4;" xml:space="preserve">
<style type="text/css">
	.st0{fill:#FFFFFF;}
	.st1{fill:#1E1D1D;}
	.st2{fill:#1E1D1D;stroke:#A56A6A;stroke-width:8;stroke-miterlimit:10;}
	.st3{fill:#1E1D1D;stroke:#4C1C1C;stroke-width:8;stroke-miterlimit:10;}
</style>
<g id="Layer_2">
	<path class="st0" d="M138.5,146.4H7.9c-4.4,0-7.9-3.6-7.9-7.9V7.9C0,3.6,3.6,0,7.9,0h130.5c4.4,0,7.9,3.6,7.9,7.9v130.5
		C146.4,142.8,142.8,146.4,138.5,146.4z"/>
	<g>
		<path class="st1" d="M85.2,142c-2,0-4-0.1-6-0.3c-18.6-1.6-35.5-10.3-47.6-24.6C6.7,87.7,10.5,43.5,39.9,18.6
			c1.2-1,3.1-0.9,4.1,0.3c1,1.2,0.9,3.1-0.3,4.1c-27,22.8-30.4,63.4-7.6,90.4c11.1,13.1,26.5,21.1,43.6,22.5
			c17.1,1.4,33.7-3.9,46.8-14.9c1.2-1,3.1-0.9,4.1,0.3c1,1.2,0.9,3.1-0.3,4.1C117.5,136.3,101.7,142,85.2,142z"/>
		<path class="st1" d="M86.3,124.8c-0.5,0-1,0-1.4,0c-22-0.9-52.6-19.7-52.6-52.7C32.4,43,56,19.4,85.1,19.4
			c18.3,0,31.4,10.2,33.8,12.3c1.2,1,1.4,2.9,0.4,4.1c-1,1.2-2.9,1.4-4.1,0.4c-2.2-1.8-13.9-10.9-30.1-10.9
			c-25.8,0-46.9,21-46.9,46.9c0,29,27.8,46.1,47,46.9c1.8,0.1,6.4,0.1,12.1-1.6c1.5-0.5,3.2,0.4,3.6,2c0.5,1.5-0.4,3.2-2,3.6
			C93.6,124.5,89.1,124.8,86.3,124.8z"/>
		<path class="st1" d="M85.1,102.7c-16.9,0-30.7-13.8-30.7-30.7c0-16.9,13.8-30.7,30.7-30.7s30.7,13.8,30.7,30.7
			C115.8,89,102,102.7,85.1,102.7z M85.1,47.2c-13.7,0-24.9,11.2-24.9,24.9c0,13.7,11.2,24.9,24.9,24.9s24.9-11.2,24.9-24.9
			C109.9,58.4,98.8,47.2,85.1,47.2z"/>
		<path class="st2" d="M43.9,19.2"/>
		<path class="st3" d="M43.9,19.2"/>
		<path class="st1" d="M59.5,10.2c0,3.2-2.6,5.9-5.9,5.9s-5.9-2.6-5.9-5.9s2.6-5.9,5.9-5.9S59.5,7,59.5,10.2z M111.2,107.1
			c-3.2,0-5.9,2.6-5.9,5.9s2.6,5.9,5.9,5.9s5.9-2.6,5.9-5.9S114.4,107.1,111.2,107.1z"/>
	</g>
</g>
<g id="Layer_1">
</g>
</svg>
