<?xml version="1.0" encoding="utf-8"?>
<!-- Generator: Adobe Illustrator 25.2.0, SVG Export Plug-In . SVG Version: 6.00 Build 0)  -->
<svg version="1.1" id="Layer_1" xmlns="http://www.w3.org/2000/svg" xmlns:xlink="http://www.w3.org/1999/xlink" x="0px" y="0px"
	 viewBox="0 0 776.7 145.8" style="enable-background:new 0 0 776.7 145.8;" xml:space="preserve">
<style type="text/css">
	.st0{fill:#1E1D1D;}
	.st1{fill:#1E1D1D;stroke:#A56A6A;stroke-width:8;stroke-miterlimit:10;}
	.st2{fill:#1E1D1D;stroke:#4C1C1C;stroke-width:8;stroke-miterlimit:10;}
</style>
<g>
	<g>
		<path class="st0" d="M74.6,144.9c-2.1,0-4.2-0.1-6.2-0.3C48.9,143,31.2,133.9,18.6,119c-26-30.8-22.1-77,8.7-103
			c1.3-1.1,3.2-0.9,4.3,0.4s0.9,3.2-0.4,4.3C3,44.5-0.6,86.8,23.3,115c11.5,13.7,27.7,22,45.6,23.5c17.8,1.5,35.2-4,48.9-15.6
			c1.3-1.1,3.2-0.9,4.3,0.4c1.1,1.3,0.9,3.2-0.4,4.3C108.3,138.9,91.8,144.9,74.6,144.9z"/>
		<path class="st0" d="M75.8,126.9c-0.5,0-1,0-1.4,0c-23-0.9-54.9-20.5-54.9-55c0-30.3,24.7-55,55-55c19.1,0,32.8,10.7,35.3,12.8
			c1.3,1.1,1.5,3,0.4,4.3c-1.1,1.3-3,1.5-4.3,0.4c-2.3-1.9-14.5-11.4-31.4-11.4c-27,0-49,22-49,49c0,30.3,29,48.2,49.1,49
			c1.8,0.1,6.7,0.1,12.6-1.7c1.6-0.5,3.3,0.5,3.8,2.1c0.5,1.6-0.5,3.3-2.1,3.8C83.4,126.5,78.7,126.9,75.8,126.9z"/>
		<path class="st0" d="M74.4,103.9c-17.7,0-32-14.4-32-32c0-17.7,14.4-32,32-32s32,14.4,32,32C106.5,89.5,92.1,103.9,74.4,103.9z
			 M74.4,45.9c-14.3,0-26,11.6-26,26c0,14.3,11.6,26,26,26s26-11.6,26-26C100.4,57.5,88.8,45.9,74.4,45.9z"/>
		<path class="st1" d="M31.4,16.6"/>
		<path class="st2" d="M31.4,16.6"/>
		<path class="st0" d="M47.8,7.2c0,3.4-2.7,6.1-6.1,6.1s-6.1-2.7-6.1-6.1s2.7-6.1,6.1-6.1S47.8,3.8,47.8,7.2z M101.7,108.4
			c-3.4,0-6.1,2.7-6.1,6.1s2.7,6.1,6.1,6.1s6.1-2.7,6.1-6.1S105.1,108.4,101.7,108.4z"/>
	</g>
	<g>
		<path class="st0" d="M218.9,70.8c0,16.6-9.3,29.2-24.2,31.7c1.4,2.2,4,3.5,7.1,3.5c3.7,0,5.8-1.4,7.1-3.4l6.6,4.2
			c-2.6,4.4-7.9,7.8-13.7,7.8c-8.5,0-15.1-4.9-17.1-11.8c-15.7-2-25.6-14.8-25.6-31.9c0-18.6,11.7-32.2,29.9-32.2
			S218.9,52.2,218.9,70.8z M209.1,70.8c0-13.7-7.5-23.7-20.2-23.7s-20.2,9.9-20.2,23.7c0,13.7,7.5,23.7,20.2,23.7
			S209.1,84.6,209.1,70.8z"/>
		<path class="st0" d="M254,96.9c-2.6,3.9-7.1,6.1-12.9,6.1c-9.1,0-16.5-6.2-16.5-16.8V56.4h9v29.8c0,5.2,4,9.4,10.2,9.4
			s10.2-4.2,10.2-9.4V56.4h9v45.2h-9V96.9z"/>
		<path class="st0" d="M277.5,68.5l-6.6-4.2c2.7-5.5,9.8-9.4,17.8-9.4c11.8,0,19.3,6.2,19.3,16.8v29.8h-9v-4.8
			c-2.7,4-7.4,6.2-13.8,6.2c-8.2,0-15.6-4-15.6-15.3c0-9.6,6.4-15,17.7-15h11.8v-1c0-5.2-3.9-8.5-10.2-8.5
			C283.9,63.2,279.5,65.5,277.5,68.5z M287.8,95.6c7.1,0,11.1-4.2,11.1-9.4v-6.1h-10.8c-6.1,0-9.7,2.8-9.7,7.6
			C278.5,93.6,282.5,95.6,287.8,95.6L287.8,95.6z"/>
		<path class="st0" d="M324.7,56.4v4.7c2.6-3.9,7.1-6.1,12.9-6.1c9.1,0,16.5,6.2,16.5,16.8v29.8h-9V71.7c0-5.2-4-9.4-10.2-9.4
			s-10.2,4.2-10.2,9.4v29.8h-9V56.4H324.7z"/>
		<path class="st0" d="M358.6,63.8v-7.4h7.2v-9.2l9-7.1v16.3h16.8v7.4h-16.8v22.4c0,5.7,3.2,8.5,8.6,8.5c2.8,0,5.8-1.2,8.1-3.8
			l6.6,4.2c-3,5.2-8.5,8-14.7,8c-10.8,0-17.6-6.1-17.6-16.8V63.8H358.6z"/>
		<path class="st0" d="M430.9,96.9c-2.6,3.9-7.1,6.1-12.9,6.1c-9.1,0-16.5-6.2-16.5-16.8V56.4h9v29.8c0,5.2,4,9.4,10.2,9.4
			s10.2-4.2,10.2-9.4V56.4h9v45.2h-9V96.9z"/>
		<path class="st0" d="M457.2,56.4v3.9c2.6-3.4,6.8-5.3,11.7-5.3c6.1,0,10.8,2.6,13.2,7.2c2.9-4.6,8-7.2,13.7-7.2
			c9.3,0,15.3,6.2,15.3,15.9v30.7h-9V70.8c0-5.2-3.5-8.5-9-8.5c-5.4,0-9,3.3-9,8.5v30.7h-9V70.8c0-5.2-3.5-8.5-9-8.5
			c-5.4,0-9,3.3-9,8.5v30.7h-9V56.4H457.2z"/>
		<path class="st0" d="M558.9,48.6h-17.4v53H532v-53h-17.4v-8.5h44.3V48.6z"/>
		<path class="st0" d="M571.9,40.1v21c2.6-3.9,7.1-6.1,12.9-6.1c9.1,0,16.5,6.2,16.5,16.8v29.8h-9V71.7c0-5.2-4-9.4-10.2-9.4
			s-10.2,4.2-10.2,9.4v29.8h-9V40.1H571.9z"/>
		<path class="st0" d="M618.2,56.4v4.7c2.6-3.9,7.1-6.1,12.9-6.1c5.2,0,9.7,2,12.8,5.5l-7.8,4.9c-1.8-1.8-4.4-3-7.7-3
			c-6.2,0-10.2,4.2-10.2,9.4v29.8h-9V56.4H618.2z"/>
		<path class="st0" d="M685,75.3c0,2.4-0.4,4.9-1.2,7.4h-30.6c1.2,7.4,6.1,12,13.1,12c4.8,0,9.2-2.1,11.2-5.2l6.6,4.2
			c-2.7,5.7-9.7,9.4-17.8,9.4c-13.7,0-22.6-9.4-22.6-24c0-14.6,8.5-24.1,21.7-24.1C676.7,54.9,685,63.9,685,75.3z M675.9,75.3
			c-0.3-7.7-4-12-10.4-12c-7,0-11.2,4.3-12.2,12H675.9z"/>
		<path class="st0" d="M697.9,68.5l-6.6-4.2c2.7-5.5,9.8-9.4,17.8-9.4c11.8,0,19.3,6.2,19.3,16.8v29.8h-9v-4.8
			c-2.7,4-7.4,6.2-13.8,6.2c-8.2,0-15.6-4-15.6-15.3c0-9.6,6.4-15,17.7-15h11.8v-1c0-5.2-3.9-8.5-10.2-8.5
			C704.3,63.2,699.9,65.5,697.9,68.5z M708.2,95.6c7.1,0,11.1-4.2,11.1-9.4v-6.1h-10.8c-6.1,0-9.7,2.8-9.7,7.6
			C698.9,93.6,702.9,95.6,708.2,95.6L708.2,95.6z"/>
		<path class="st0" d="M775.6,101.6h-9v-4.9c-2.7,4-7.2,6.3-12.9,6.3c-11.5,0-19.3-9.4-19.3-24s7.8-24.1,19.3-24.1
			c5.7,0,10.2,2.4,12.9,6.3V40.1h9V101.6z M756,95.6c5.6,0,10-4,10.6-9.4V71.7c-0.5-5.4-5-9.4-10.6-9.4c-7.5,0-12.4,6.5-12.4,16.6
			C743.6,89.1,748.5,95.6,756,95.6z"/>
	</g>
</g>
</svg>
