<?xml version="1.0" encoding="utf-8"?>
<!-- Generator: Adobe Illustrator 25.2.0, SVG Export Plug-In . SVG Version: 6.00 Build 0)  -->
<svg version="1.1" id="Layer_1" xmlns="http://www.w3.org/2000/svg" xmlns:xlink="http://www.w3.org/1999/xlink" x="0px" y="0px"
	 viewBox="0 0 14 14" style="enable-background:new 0 0 14 14;" xml:space="preserve">
<style type="text/css">
	.st0{opacity:0.6;fill:#FFFFFF;}
</style>
<path class="st0" d="M7,10.4c-0.1,0-0.2,0-0.3-0.1c-0.1,0-0.2-0.1-0.3-0.2L1.1,4.8C1,4.7,1,4.5,1,4.3C1,4.1,1.1,4,1.2,3.8
	c0.1-0.1,0.3-0.2,0.5-0.2c0.2,0,0.4,0,0.5,0.2L7,8.5l4.8-4.7c0.1-0.1,0.3-0.1,0.5-0.1c0.2,0,0.3,0.1,0.5,0.2C12.9,4,13,4.1,13,4.3
	c0,0.2,0,0.4-0.1,0.5l-5.3,5.3c-0.1,0.1-0.2,0.1-0.3,0.2S7.1,10.4,7,10.4z"/>
</svg>
