<?xml version="1.0" encoding="utf-8"?>
<!-- Generator: Adobe Illustrator 25.2.0, SVG Export Plug-In . SVG Version: 6.00 Build 0)  -->
<svg version="1.1" id="Layer_1" xmlns="http://www.w3.org/2000/svg" xmlns:xlink="http://www.w3.org/1999/xlink" x="0px" y="0px"
	 viewBox="0 0 677.2 673" style="enable-background:new 0 0 677.2 673;" xml:space="preserve">
<style type="text/css">
	.st0{fill:#1F2937;}
</style>
<path class="st0" d="M337.2,3.8C153.8,3.8,3.8,153.5,3.8,337.8c0,166.7,122,305,281.3,330V434.5h-84.7v-96.7h84.7v-73.7
	c0-83.7,49.7-129.7,126-129.7c36.3,0,74.3,6.3,74.3,6.3v82.3h-42c-41.3,0-54.3,25.7-54.3,52v62.7h92.7l-15,96.7h-77.7v233.3
	c78.5-12.4,150.1-52.5,201.7-113c51.6-60.5,79.9-137.5,79.7-217C670.5,153.5,520.5,3.8,337.2,3.8z"/>
</svg>
