<svg width="2224" height="685" viewBox="0 0 2224 685" fill="none" xmlns="http://www.w3.org/2000/svg">
<path d="M119.178 439.064C119.178 428.709 121.515 419.022 125.856 410.337C136.542 388.959 141.55 365.243 141.55 341.192V269.71C141.55 233.634 112.5 204.574 76.4377 204.574H66.0864C30.0239 204.574 0.973633 233.634 0.973633 269.71V343.531C0.973633 366.913 5.64837 389.961 15.6657 410.671C20.0065 419.356 22.344 428.709 22.344 439.064V591.048C22.344 617.438 43.7142 639.148 70.4271 639.482C97.4738 639.482 119.178 618.106 119.178 591.048V439.064Z" fill="#1531C0" style="fill:#1531C0;fill:color(display-p3 0.0838 0.1908 0.7523);fill-opacity:1;"/>
<path d="M6.66113 88.7781C6.66113 124.475 35.5888 153.413 71.2726 153.413C106.957 153.413 135.885 124.475 135.885 88.7781C135.885 53.0811 106.957 24.1431 71.2726 24.1431C35.5888 24.1431 6.66113 53.0811 6.66113 88.7781Z" fill="#1531C0" style="fill:#1531C0;fill:color(display-p3 0.0838 0.1908 0.7523);fill-opacity:1;"/>
<path d="M767.638 34.5462C767.638 20.8513 778.322 10.1619 792.348 10.1619C806.374 10.1619 816.724 20.8513 816.724 34.5462V270.038C816.724 283.734 806.04 294.423 792.348 294.423C778.657 294.423 767.638 283.734 767.638 270.038V34.5462Z" fill="#1531C0" style="fill:#1531C0;fill:color(display-p3 0.0838 0.1908 0.7523);fill-opacity:1;"/>
<path d="M856.142 103.026C856.142 89.33 866.492 78.6412 880.184 78.6412C893.875 78.6412 904.56 89.33 904.56 103.026V113.38C918.252 93.6725 937.951 76.6367 970.673 76.6367C1018.42 76.6367 1045.81 108.704 1045.81 157.472V270.375C1045.81 284.07 1035.45 294.426 1021.76 294.426C1008.07 294.426 997.388 284.07 997.388 270.375V172.17C997.388 139.435 981.024 120.395 952.311 120.395C923.591 120.395 904.56 140.103 904.56 172.838V270.375C904.56 284.07 893.875 294.426 880.184 294.426C866.492 294.426 856.142 284.07 856.142 270.375V103.026Z" fill="#1531C0" style="fill:#1531C0;fill:color(display-p3 0.0838 0.1908 0.7523);fill-opacity:1;"/>
<path d="M1084.55 233.965V122.732H1076.53C1064.84 122.732 1055.83 113.379 1055.83 102.023C1055.83 90.6649 1065.18 81.3124 1076.53 81.3124H1084.55V45.237C1084.55 31.8756 1095.23 21.1868 1108.92 21.1868C1122.61 21.1868 1132.96 31.8756 1132.96 45.237V81.3124H1171.03C1182.72 81.3124 1192.4 90.6649 1192.4 102.023C1192.4 113.379 1182.72 122.732 1171.03 122.732H1132.96V226.616C1132.96 245.322 1142.65 253.005 1159.01 253.005C1164.69 253.005 1169.36 251.668 1171.03 251.668C1181.71 251.668 1191.4 260.353 1191.4 271.71C1191.4 280.395 1185.39 287.744 1178.71 290.416C1168.36 294.091 1158.34 296.095 1145.32 296.095C1109.59 296.095 1084.55 280.395 1084.55 233.965Z" fill="#1531C0" style="fill:#1531C0;fill:color(display-p3 0.0838 0.1908 0.7523);fill-opacity:1;"/>
<path d="M1306.26 297.431C1244.83 297.431 1197.75 253.005 1197.75 187.535V186.867C1197.75 126.407 1240.49 76.6365 1300.92 76.6365C1368.04 76.6365 1401.43 132.086 1401.43 180.854C1401.43 194.55 1391.08 204.236 1378.73 204.236H1246.16C1251.5 238.642 1275.88 258.016 1306.93 258.016C1327.3 258.016 1343.33 250.667 1357.02 239.644C1360.7 236.972 1363.7 235.302 1369.38 235.302C1380.06 235.302 1388.74 243.652 1388.74 255.01C1388.74 261.022 1386.07 266.367 1382.4 269.707C1363.03 287.077 1338.99 297.765 1306.26 297.765V297.431ZM1354.35 172.169C1351.01 140.771 1332.65 116.386 1300.59 116.386C1270.87 116.386 1250.17 139.101 1245.83 172.169H1354.35Z" fill="#1531C0" style="fill:#1531C0;fill:color(display-p3 0.0838 0.1908 0.7523);fill-opacity:1;"/>
<path d="M1443.49 338.517C1435.13 335.177 1429.79 328.496 1429.79 319.144C1429.79 308.454 1439.14 299.102 1450.16 299.102C1453.84 299.102 1456.51 299.77 1458.84 301.106C1478.21 311.795 1499.25 317.807 1523.62 317.807C1566.7 317.807 1590.41 295.427 1590.41 253.005V236.638C1572.71 259.352 1550.67 275.386 1515.94 275.386C1466.19 275.386 1419.78 238.642 1419.78 176.512V175.844C1419.78 113.38 1466.53 76.6365 1515.94 76.6365C1551.67 76.6365 1573.71 93.0041 1590.07 112.712V102.691C1590.07 89.3298 1600.76 78.641 1614.11 78.641C1627.47 78.641 1638.49 89.3298 1638.49 103.025V249.331C1638.49 285.072 1629.14 311.461 1611.78 329.164C1592.41 348.538 1563.02 357.557 1524.96 357.557C1495.24 357.557 1468.86 351.211 1443.15 338.851L1443.49 338.517ZM1591.41 176.178V175.51C1591.41 141.105 1563.02 117.388 1529.3 117.388C1495.57 117.388 1469.19 140.771 1469.19 175.51V176.178C1469.19 210.583 1495.91 234.3 1529.3 234.3C1562.69 234.3 1591.41 210.583 1591.41 176.178Z" fill="#1531C0" style="fill:#1531C0;fill:color(display-p3 0.0838 0.1908 0.7523);fill-opacity:1;"/>
<path d="M1669.88 103.024C1669.88 89.3283 1680.23 78.6395 1693.92 78.6395C1707.61 78.6395 1718.29 89.3283 1718.29 103.024V124.736C1729.64 98.3473 1750.35 78.3054 1771.72 78.3054C1787.08 78.3054 1795.76 88.3267 1795.76 102.356C1795.76 115.049 1787.41 123.734 1776.39 125.738C1742 131.751 1718.29 158.139 1718.29 208.244V270.708C1718.29 284.069 1707.61 294.758 1693.92 294.758C1680.23 294.758 1669.88 284.403 1669.88 270.708V103.358V103.024Z" fill="#1531C0" style="fill:#1531C0;fill:color(display-p3 0.0838 0.1908 0.7523);fill-opacity:1;"/>
<path d="M1804.79 24.1967C1804.79 9.83298 1816.81 0.480469 1832.5 0.480469C1848.19 0.480469 1860.21 9.83298 1860.21 24.1967V26.5346C1860.21 40.8978 1848.19 50.5849 1832.5 50.5849C1816.81 50.5849 1804.79 40.8978 1804.79 26.5346V24.1967ZM1808.45 103.028C1808.45 89.3324 1818.81 78.6436 1832.5 78.6436C1846.19 78.6436 1856.87 89.3324 1856.87 103.028V270.378C1856.87 284.073 1846.19 294.428 1832.5 294.428C1818.81 294.428 1808.45 284.073 1808.45 270.378V103.028Z" fill="#1531C0" style="fill:#1531C0;fill:color(display-p3 0.0838 0.1908 0.7523);fill-opacity:1;"/>
<path d="M1899.96 233.964V122.732H1891.94C1880.26 122.732 1871.24 113.379 1871.24 102.022C1871.24 90.6645 1880.59 81.312 1891.94 81.312H1899.96V45.2365C1899.96 31.8751 1910.64 21.1863 1924.33 21.1863C1938.02 21.1863 1948.37 31.8751 1948.37 45.2365V81.312H1986.44C1998.13 81.312 2007.81 90.6645 2007.81 102.022C2007.81 113.379 1998.13 122.732 1986.44 122.732H1948.37V226.615C1948.37 245.321 1958.06 253.004 1974.42 253.004C1980.09 253.004 1984.77 251.668 1986.44 251.668C1997.13 251.668 2006.81 260.353 2006.81 271.71C2006.81 280.395 2000.8 287.743 1994.12 290.415C1983.77 294.09 1973.75 296.094 1960.73 296.094C1925 296.094 1899.96 280.395 1899.96 233.964Z" fill="#1531C0" style="fill:#1531C0;fill:color(display-p3 0.0838 0.1908 0.7523);fill-opacity:1;"/>
<path d="M2039.5 351.887C2032.15 349.549 2024.14 343.536 2024.14 331.845C2024.14 320.154 2033.48 311.803 2043.84 311.803C2047.84 311.803 2050.18 312.471 2052.52 313.473C2058.19 315.143 2062.54 316.145 2069.21 316.145C2083.57 316.145 2091.25 310.133 2099.27 293.765L2100.94 289.423L2022.46 114.056C2020.8 110.382 2019.8 105.706 2019.8 102.365C2019.8 88.6698 2030.15 78.6492 2043.84 78.6492C2056.19 78.6492 2063.21 85.9978 2067.54 97.0207L2124.31 237.648L2177.07 97.0207C2181.07 87 2187.75 78.6492 2200.44 78.6492C2213.13 78.6492 2223.82 88.6698 2223.82 101.363C2223.82 105.372 2222.48 110.716 2221.81 113.054L2144.35 298.442C2126.31 341.866 2106.95 357.899 2073.22 357.899C2059.53 357.899 2049.51 355.895 2039.5 351.887Z" fill="#1531C0" style="fill:#1531C0;fill:color(display-p3 0.0838 0.1908 0.7523);fill-opacity:1;"/>
<path d="M763.363 637.054L867.544 404.569C873.218 392.21 883.24 384.527 897.26 384.527H899.599C913.624 384.527 923.307 392.21 928.986 404.569L1033.16 637.054C1035.17 640.729 1035.83 644.404 1035.83 647.41C1035.83 660.773 1025.82 671.124 1012.46 671.124C1000.77 671.124 992.761 664.448 988.418 653.758L965.712 601.313H829.476L805.768 655.428C801.765 665.445 793.413 671.124 783.062 671.124C770.373 671.124 760.356 661.108 760.356 648.412C760.356 644.738 761.693 641.063 763.697 637.388L763.363 637.054ZM946.681 557.554L897.594 444.319L848.179 557.554H946.681Z" fill="#EE4734" style="fill:#EE4734;fill:color(display-p3 0.9345 0.2766 0.2035);fill-opacity:1;"/>
<path d="M1056.21 398.893C1056.21 385.531 1066.56 374.843 1080.25 374.843C1093.94 374.843 1104.62 385.531 1104.62 398.893V647.412C1104.62 661.109 1093.94 671.46 1080.25 671.46C1066.56 671.46 1056.21 661.109 1056.21 647.412V398.893Z" fill="#EE4734" style="fill:#EE4734;fill:color(display-p3 0.9345 0.2766 0.2035);fill-opacity:1;"/>
<path d="M1234.85 674.131C1173.75 674.131 1126.33 629.705 1126.33 564.237V563.568C1126.33 503.106 1169.07 453.339 1229.51 453.339C1296.96 453.339 1330.02 508.785 1330.02 557.555C1330.02 571.252 1319.66 580.935 1307.31 580.935H1174.75C1180.09 615.345 1204.47 634.716 1235.52 634.716C1255.89 634.716 1271.92 627.366 1285.6 616.341C1289.28 613.674 1292.29 612.004 1297.96 612.004C1308.64 612.004 1317.33 620.35 1317.33 631.709C1317.33 637.722 1314.66 643.068 1310.98 646.409C1291.62 663.775 1267.58 674.465 1234.85 674.465V674.131ZM1282.94 548.869C1279.6 517.471 1261.23 493.089 1229.17 493.089C1199.46 493.089 1178.76 515.801 1174.41 548.869H1282.94Z" fill="#EE4734" style="fill:#EE4734;fill:color(display-p3 0.9345 0.2766 0.2035);fill-opacity:1;"/>
<path d="M1360.06 479.724C1360.06 466.027 1370.41 455.342 1384.1 455.342C1397.79 455.342 1408.48 466.027 1408.48 479.724V501.434C1419.83 475.047 1440.53 455.008 1461.57 455.008C1476.93 455.008 1485.61 465.025 1485.61 479.056C1485.61 491.751 1477.26 500.431 1466.24 502.436C1431.85 508.449 1408.14 534.842 1408.14 584.942V647.409C1408.14 660.767 1397.46 671.457 1383.76 671.457C1370.07 671.457 1359.72 661.101 1359.72 647.409V480.058L1360.06 479.724Z" fill="#EE4734" style="fill:#EE4734;fill:color(display-p3 0.9345 0.2766 0.2035);fill-opacity:1;"/>
<path d="M1535.37 610.668V499.436H1527.36C1515.67 499.436 1506.66 490.088 1506.66 478.729C1506.66 467.371 1516.01 458.016 1527.36 458.016H1535.37V421.943C1535.37 408.582 1546.06 397.892 1559.75 397.892C1573.44 397.892 1583.79 408.582 1583.79 421.943V458.016H1621.86C1633.55 458.016 1643.23 467.371 1643.23 478.729C1643.23 490.088 1633.55 499.436 1621.86 499.436H1583.79V603.324C1583.79 622.026 1593.47 629.71 1609.84 629.71C1615.51 629.71 1620.19 628.374 1621.86 628.374C1632.54 628.374 1642.23 637.06 1642.23 648.419C1642.23 657.099 1636.21 664.449 1629.54 667.121C1619.19 670.796 1609.17 672.801 1596.15 672.801C1560.42 672.801 1535.37 657.099 1535.37 610.668Z" fill="#EE4734" style="fill:#EE4734;fill:color(display-p3 0.9345 0.2766 0.2035);fill-opacity:1;"/>
<path d="M339.969 73.8717C339.969 46.4075 317.705 24.1433 290.241 24.1433C262.777 24.1433 240.513 46.4075 240.513 73.8717V409.324C240.513 436.788 262.777 459.052 290.241 459.052C317.705 459.052 339.969 436.788 339.969 409.324V73.8717Z" fill="#EE4734" style="fill:#EE4734;fill:color(display-p3 0.9345 0.2766 0.2035);fill-opacity:1;"/>
<path d="M348.717 581.217C348.717 548.919 322.534 522.736 290.236 522.736C257.938 522.736 231.755 548.919 231.755 581.217C231.755 613.515 257.938 639.698 290.236 639.698C322.534 639.698 348.717 613.515 348.717 581.217Z" fill="#EE4734" style="fill:#EE4734;fill:color(display-p3 0.9345 0.2766 0.2035);fill-opacity:1;"/>
<path d="M545.055 73.8714C545.055 46.4072 522.791 24.1431 495.327 24.1431C467.863 24.1431 445.599 46.4072 445.599 73.8714V409.324C445.599 436.788 467.863 459.052 495.327 459.052C522.791 459.052 545.055 436.788 545.055 409.324V73.8714Z" fill="#EE4734" style="fill:#EE4734;fill:color(display-p3 0.9345 0.2766 0.2035);fill-opacity:1;"/>
<path d="M553.818 581.217C553.818 548.919 527.636 522.736 495.337 522.736C463.039 522.736 436.856 548.919 436.856 581.217C436.856 613.515 463.039 639.698 495.337 639.698C527.636 639.698 553.818 613.515 553.818 581.217Z" fill="#EE4734" style="fill:#EE4734;fill:color(display-p3 0.9345 0.2766 0.2035);fill-opacity:1;"/>
<path d="M1991.11 404.439H1789.93C1748.04 404.439 1714.09 438.394 1714.09 480.28V608.477C1714.09 650.363 1748.04 684.318 1789.93 684.318H1991.11C2033 684.318 2066.95 650.363 2066.95 608.477V480.28C2066.95 438.394 2033 404.439 1991.11 404.439Z" fill="#EE4734" style="fill:#EE4734;fill:color(display-p3 0.9345 0.2766 0.2035);fill-opacity:1;"/>
<path d="M1785.93 574.224V573.688C1785.93 542.768 1810.14 527.573 1845.22 527.573C1861.28 527.573 1872.68 529.993 1883.87 533.558V530.062C1883.87 509.763 1871.33 498.871 1848.26 498.871C1835.78 498.871 1825.39 501.026 1816.42 504.585C1814.53 505.127 1812.92 505.392 1811.23 505.392C1803.6 505.392 1797.33 499.413 1797.33 491.815C1797.33 485.831 1801.38 480.727 1806.3 478.775C1819.93 473.602 1833.76 470.371 1852.58 470.371C1874.09 470.371 1890.15 476.085 1900.2 486.372C1910.79 496.654 1915.71 511.849 1915.71 530.534V601.042C1915.71 609.982 1908.63 616.773 1899.66 616.773C1890.15 616.773 1883.61 610.252 1883.61 602.926V597.482C1873.83 609.106 1858.85 618.385 1836.79 618.385C1809.88 618.385 1785.93 602.926 1785.93 574.224ZM1878.72 563.17V553.424C1870.29 550.199 1864.85 548.482 1851.77 548.482C1830.52 548.482 1818.04 557.422 1818.04 572.34V572.881C1818.04 586.728 1830.32 594.591 1846.04 594.591C1867.82 594.591 1878.72 581.32 1878.72 563.17Z" fill="white" style="fill:white;fill:white;fill-opacity:1;"/>
<path d="M1950.25 487.179C1950.25 477.969 1957.33 470.642 1966.58 470.642C1975.81 470.642 1983.16 477.969 1983.16 487.179V600.507C1983.16 609.712 1975.81 616.773 1966.58 616.773C1957.33 616.773 1950.25 609.712 1950.25 600.507V487.179Z" fill="white" style="fill:white;fill:white;fill-opacity:1;"/>
</svg>
